PathFileType	4	(X/Y/Z)	OpenSim_Sub05_CSBaseline_Gyro.trc
DataRate	CameraRate	NumFrames	NumMarkers	Units	OrigDataRate	OrigDataStartFrame	OrigNumFrames
100	100	27	8	m	100	9238	10557
Frame#	Time	torso_imu_offset_imu	pelvis_imu_offset_imu	tibia_r_imu_offset_imu	femur_r_imu_offset_imu	tibia_l_imu_offset_imu	femur_l_imu_offset_imu	toes_r_imu_offset_imu	toes_l_imu_offset_imu
				X1	Y1	Z1	X2	Y2	Z2	X3	Y3	Z3	X4	Y4	Z4	X5	Y5	Z5	X6	Y6	Z6	X7	Y7	Z7	X8		Y8	Z8	

9238	92.37000000	-0.05858099	-0.05481012	-0.24098919	0.07374990	0.12163133	0.15555182	-0.15418632	0.35955515	3.74186517	0.87395798	0.08672355	0.47750134	-0.02572115	-0.06090704	0.62023144	-0.17942389	-0.18526716	0.50993732	-0.21948590	3.97098350	0.90557818	-0.03960710	-0.11420749	0.01085122
9239	92.38000000	-0.06936363	-0.04954120	-0.26418485	0.08796342	0.13559726	0.13973537	-0.18794785	0.35521994	3.98945300	0.84112787	-0.02169297	0.35389792	-0.04915676	-0.05129985	0.60953687	-0.15359679	-0.15169228	0.54442107	-0.25130747	4.21607708	0.97861452	-0.01228552	-0.11230877	0.00855014
9240	92.39000000	-0.10195267	-0.03842268	-0.26314641	0.10567615	0.15212427	0.12753806	-0.15776514	0.30172104	4.20027348	0.76868477	-0.12533881	0.20845812	0.00277041	-0.03835767	0.60560763	-0.13670084	-0.13884004	0.58151295	-0.28574907	4.40022817	1.03080619	0.02558644	-0.09731642	0.00585535
9241	92.40000000	-0.13506987	-0.01671318	-0.23725125	0.11991546	0.16692515	0.10080380	-0.05236003	0.28411660	4.40289578	0.66465469	-0.23538694	0.05346832	0.02857435	-0.04434801	0.60097020	-0.14337863	-0.12097780	0.60025459	-0.34680812	4.50869319	1.06428455	0.05000211	-0.07521823	0.00925654
9242	92.41000000	-0.17852771	-0.01612114	-0.21090191	0.13348581	0.17073665	0.06619321	0.18035954	0.26213545	4.60445474	0.54895048	-0.34249966	-0.08876006	0.08845826	-0.03001148	0.59423341	-0.17663921	-0.10745954	0.61513593	-0.47494701	4.53969816	1.08916942	0.07788232	-0.06749115	0.00873831
9243	92.42000000	-0.18174582	-0.00035657	-0.19535053	0.13760360	0.18079727	0.03621928	0.56126481	0.25061234	4.77642466	0.44249444	-0.44597916	-0.24069457	0.09143902	-0.01447018	0.60820305	-0.17276334	-0.09844332	0.61116635	-0.54635946	4.53223511	1.12581652	0.07601397	-0.06541650	0.01136033
9244	92.43000000	-0.16789260	0.01291160	-0.17902863	0.12572966	0.18096152	0.01922550	0.76948701	0.37106282	4.78278949	0.32059579	-0.53986935	-0.39575678	0.05664167	-0.00639952	0.59748331	-0.15808128	-0.07157803	0.62301626	-0.55172971	4.41853564	1.19318089	0.07589993	-0.04498514	0.01464596
9245	92.44000000	-0.13926689	0.01933594	-0.17722983	0.10263452	0.14888960	0.00411885	0.56652968	0.61661911	4.69543333	0.16368299	-0.64661682	-0.55674979	0.07975802	0.00303538	0.57604138	-0.15787672	-0.08676870	0.66217657	-0.50887150	4.20538460	1.30544297	0.06342217	-0.03600953	0.02478666
9246	92.45000000	-0.11251193	0.02604645	-0.18857299	0.08662055	0.12496579	-0.01382411	0.30803050	0.75763691	4.67415517	0.00082881	-0.75365832	-0.70881972	0.12661580	-0.01068816	0.53574092	-0.14661894	-0.10053370	0.69660776	-0.50901417	3.97610185	1.45785955	0.04464572	-0.03130474	0.03920496
9247	92.46000000	-0.08309235	0.04727911	-0.20126871	0.09117553	0.12498172	-0.04061419	-0.06425243	0.63159535	4.64894535	-0.09557829	-0.81589737	-0.87491567	0.17379726	-0.04291803	0.53625999	-0.16301285	-0.04545857	0.75635267	-0.46061023	3.92497369	1.62502007	0.06106651	-0.02737010	0.04791403
9248	92.47000000	-0.08824847	0.09364865	-0.20297705	0.10801178	0.13499531	-0.07058258	-0.27270042	0.36696891	4.46221783	-0.06541459	-0.84573654	-1.06847360	0.23262777	-0.03909013	0.55814310	-0.21180227	-0.01341711	0.79056079	-0.31615583	4.00690543	1.73108000	0.09508297	-0.02575347	0.04145943
9249	92.48000000	-0.10717512	0.14416027	-0.19145023	0.13461498	0.14116058	-0.09389402	-0.07017464	0.19664579	4.13172399	0.09129286	-0.82132311	-1.25666218	0.21211309	-0.03553057	0.56884621	-0.33963640	-0.07158908	0.79350864	-0.15205991	4.04317024	1.72716961	0.12202957	-0.04179418	0.04070521
9250	92.49000000	-0.09380501	0.16576525	-0.17327706	0.15134801	0.10217909	-0.10673321	0.20895586	0.20590413	3.81477889	0.44937789	-0.66498392	-1.36354372	0.17226869	-0.03161466	0.58864770	-0.39667899	-0.09446688	0.73572326	-0.04532776	3.96084871	1.64663670	0.13888121	-0.07793027	0.05639073
9251	92.50000000	-0.06230904	0.17196567	-0.15352764	0.16779670	0.00430202	-0.10406917	0.43031336	0.26118065	3.51833448	0.99036002	-0.37432715	-1.29780310	0.07163539	-0.01846856	0.68796274	-0.39210147	-0.07510504	0.65706243	-0.04403991	3.73614133	1.54335728	0.12687501	-0.13004792	0.06919354
9252	92.51000000	-0.04942486	0.17513676	-0.14944306	0.19406447	-0.09954718	-0.08224665	0.37935533	0.12157695	3.16342784	1.39229534	-0.18502671	-1.08138349	0.05376625	0.00369030	0.79228448	-0.35865955	-0.03311917	0.61187874	-0.19183369	3.29174955	1.38340263	0.16546637	-0.18126554	0.08027551
9253	92.52000000	-0.03590075	0.16308330	-0.14898499	0.21795347	-0.18577425	-0.03613751	0.16000294	-0.15933776	2.70507835	1.39030301	-0.24247923	-0.76870382	0.18177557	0.01997562	0.88317615	-0.29185662	0.00243154	0.56794305	-0.38159063	2.63231309	1.11926049	0.19512456	-0.22929073	0.10691226
9254	92.53000000	-0.02595255	0.14204784	-0.12600460	0.22267017	-0.21330405	0.03057361	0.08555104	-0.29836588	2.16425714	1.06264520	-0.45270105	-0.42855945	0.33587943	0.02739102	0.93459614	-0.22424889	0.04014780	0.52683826	-0.58934022	1.87574288	0.83065599	0.14393291	-0.29170679	0.16066184
9255	92.54000000	-0.02677133	0.12662387	-0.11216016	0.23457068	-0.15888839	0.11532180	-0.17369828	-0.32911422	1.57993773	0.51539128	-0.58538163	-0.16321404	0.36650100	0.02404236	0.98995696	-0.14207073	0.07106400	0.49329226	-0.80027004	1.16193890	0.56773897	0.09019740	-0.36299516	0.20391723
9256	92.55000000	-0.01952905	0.10341319	-0.10105088	0.25480170	-0.08667959	0.18173508	-0.51595801	-0.39194773	0.97456410	0.01650473	-0.55607551	0.04660630	0.33406772	0.04229315	1.07593748	-0.06477435	0.08028152	0.44726204	-0.84659898	0.53119105	0.32297214	0.08137562	-0.43662157	0.22936118
9257	92.56000000	0.01067036	0.08719673	-0.10525216	0.24686715	-0.03991992	0.22108615	-0.54743338	-0.41247635	0.40642671	-0.21762240	-0.42160088	0.19259842	0.28720695	0.05828066	1.15637120	-0.00343390	0.08061120	0.37950601	-0.76565190	0.03166170	0.12936946	0.05310236	-0.52459580	0.24463447
9258	92.57000000	0.02765549	0.07843618	-0.09788429	0.24404863	-0.02406602	0.23312189	-0.44644254	-0.34901224	-0.12739425	-0.40464528	-0.28736288	0.32631376	0.25537912	0.06743001	1.20327341	0.04711966	0.09341830	0.32105339	-0.66595611	-0.20571191	0.01403822	0.05506035	-0.62155562	0.27076668
9259	92.58000000	0.04270324	0.08399896	-0.07660175	0.25880193	-0.01162038	0.21576865	-0.26968124	-0.30643842	-0.67048327	-0.68508557	-0.22984622	0.44233475	0.27061565	0.06795616	1.26696019	0.09229258	0.10041990	0.29545121	-0.42208154	-0.18158701	-0.03081194	-0.01089319	-0.71869207	0.28642319
9260	92.59000000	0.06852269	0.09662787	-0.05041866	0.28323580	-0.00465887	0.16336713	0.17820140	-0.26591232	-1.11768477	-0.91303871	-0.28085649	0.49732298	0.32671231	0.10031328	1.33027292	0.19685525	0.11358012	0.28487118	0.04672977	-0.24732279	-0.09837834	0.06364095	-0.84699366	0.30300789
9261	92.60000000	0.09535030	0.10860200	-0.03405384	0.33242890	-0.02499784	0.08695543	0.63703664	-0.23239236	-1.32844824	-1.08836184	-0.34140330	0.51059791	0.42491940	0.07053000	1.38083894	0.33355976	0.12931087	0.25805375	-0.01138776	-0.64459257	-0.09339967	0.17525990	-1.00352887	0.32777268
9262	92.61000000	0.12270947	0.12393156	-0.01139694	0.41180262	-0.11321476	-0.02154419	1.08335438	-0.31313184	-1.43806608	-1.33644315	-0.44183987	0.47783052	0.52430485	0.02717828	1.43494015	0.50811841	0.13859816	0.23278675	1.87867672	-1.26687535	-0.38828037	0.23950073	-1.18920783	0.37898306
9263	92.62000000	0.13716505	0.15127151	0.00219964	0.55119863	-0.26295911	-0.14339570	1.56179065	-0.42113659	-1.52347611	-1.50770712	-0.80239265	0.29970066	0.61308601	0.02048648	1.46281116	0.62343909	0.17085701	0.21287280	1.77334384	-2.16750090	-0.47421889	0.25602169	-1.37901684	0.41498253
9264	92.63000000	0.13968795	0.16795020	0.00928057	0.65797499	-0.36062607	-0.21253018	1.56822206	-0.64110234	-1.32664729	-1.16881534	-1.28833332	-0.00230165	0.64785787	-0.01849590	1.56568842	0.70897304	0.22437881	0.19126278	0.41541324	-2.76412363	-0.30291921	0.30498909	-1.73576630	0.50253801
